# xmcd
#
# Track frame offsets:
#       150
#       18416
#       41275
#       72535
#       92165
#       130505
#       159727
#       206163
#       229858
#       248709
#       274726
#       295418
#       323219
#
# Disc length: 4737 seconds
#
# Revision: 1
# Processed by: cddbd v1.4PL0 Copyright (c) Steve Scherf et al.
# Submitted via: MusiCat 1.1
#
DISCID=bc127f0d
DTITLE=Van Morrison - Live At Lorely 1999
DYEAR=1900
DGENRE=
TTITLE0=It's All Over Now, Baby Blue
TTITLE1=TB Sheets
TTITLE2=Moondance
TTITLE3=Back On Top
TTITLE4=Philosopher's Stone
TTITLE5=Centrepiece
TTITLE6=In The Afternoon
TTITLE7=Muleskinner Blues
TTITLE8=Precious Time
TTITLE9=Just Like A Woman
TTITLE10=Satisfied
TTITLE11=When The Leaves
TTITLE12=Healing Game
EXTD=\n\n
EXTT0=
EXTT1=
EXTT2=
EXTT3=
EXTT4=
EXTT5=
EXTT6=
EXTT7=
EXTT8=
EXTT9=
EXTT10=
EXTT11=
EXTT12=
PLAYORDER=
